<svg xmlns="http://www.w3.org/2000/svg"  viewBox="0 0 24 24" width="384px" height="384px"><polygon points="21,17 19,17 16,19 16,17 14,17 14,6 21,6" opacity=".3"/><polygon fill="none" stroke="#000" stroke-miterlimit="10" stroke-width="2" points="21,17 19,17 16,19 16,17 14,17 14,6 21,6"/><line x1="5" x2="11" y1="6" y2="6" fill="none" stroke="#000" stroke-miterlimit="10" stroke-width="2"/><line x1="4" x2="11" y1="13" y2="13" fill="none" stroke="#000" stroke-miterlimit="10" stroke-width="2"/><path fill="none" stroke="#000" stroke-miterlimit="10" stroke-width="2" d="M8,6c0,0,0,0.222,0,4.222c0,4.487-1.222,7.841-5,10"/><line x1="8.37" x2="11" y1="16.397" y2="20" fill="none" stroke="#000" stroke-miterlimit="10" stroke-width="2"/><line x1="4" x2="6" y1="9" y2="3" fill="none" stroke="#000" stroke-miterlimit="10" stroke-width="2"/></svg>