<?xml version="1.0" encoding="UTF-8"?>
<svg xmlns="http://www.w3.org/2000/svg" xmlns:xlink="http://www.w3.org/1999/xlink" viewBox="0 0 384 384" width="384px" height="384px">
<g id="surface39566990">
<path style=" stroke:none;fill-rule:nonzero;fill:rgb(100%,100%,100%);fill-opacity:1;" d="M 80.8125 42.9375 L 48.8125 138.9375 L 79.1875 149.0625 L 91.53125 112 L 112 112 L 112 163.5625 C 112 173.894531 110.75 182.6875 109.9375 192 L 64 192 L 64 224 L 104.6875 224 C 95.734375 260.316406 77.144531 288.464844 40.0625 309.65625 L 55.9375 337.4375 C 102.535156 310.808594 126.753906 271.316406 137.21875 224 L 176 224 L 176 192 L 141.5625 192 C 142.414062 182.539062 144 173.507812 144 163.5625 L 144 112 L 176 112 L 176 80 L 102.21875 80 L 111.1875 53.0625 Z M 208 80 L 208 288 L 240 288 L 240 333.90625 L 308.84375 288 L 352 288 L 352 80 Z M 240 112 L 320 112 L 320 256 L 299.15625 256 L 272 274.09375 L 272 256 L 240 256 Z M 146.84375 252.90625 L 121 271.78125 L 163.0625 329.4375 L 188.9375 310.5625 Z M 146.84375 252.90625 "/>
</g>
</svg>
